inDegrees=yes
name=ik_lifting_orientations
DataType=double
version=3
OpenSimVersion=4.5-2024-01-10-34fd6af
endheader
time	pelvis_tilt	pelvis_list	pelvis_rotation	pelvis_tx	pelvis_ty	pelvis_tz	hip_flexion_r	hip_adduction_r	hip_rotation_r	knee_angle_r	knee_angle_r_beta	ankle_angle_r	subtalar_angle_r	mtp_angle_r	hip_flexion_l	hip_adduction_l	hip_rotation_l	knee_angle_l	knee_angle_l_beta	ankle_angle_l	subtalar_angle_l	mtp_angle_l	lumbar_extension	lumbar_bending	lumbar_rotation	arm_flex_r	arm_add_r	arm_rot_r	elbow_flex_r	pro_sup_r	wrist_flex_r	wrist_dev_r	arm_flex_l	arm_add_l	arm_rot_l	elbow_flex_l	pro_sup_l	wrist_flex_l	wrist_dev_l
0.02	-0.001503499166405326	0.002298560481234259	-89.88829934504658	0	0.9399999998679526	0	43.2291120581362	-11.06298627127773	0	57.75841675063751	1.008074543037669	-5.567710515760687	0	0	43.2291120581362	-11.06298627127773	0	57.75841675063751	1.008074543037669	-5.567710515760687	0	0	0.009356659556120061	-0.005649748693366596	-0.02193205508642092	-0.2011566685293724	-0.03456397168132527	0.010740386353092	0.3998699284506497	5.888374449768468	0	0	0	-9.556519967237426	0	84.17345545707337	5.888374449768468	0	0
0.03	0.0372803950538913	-0.002677122978308463	-89.96402494009294	0	0.9399999998679526	0	43.22931743641573	-11.0625562076151	0	57.75862126614159	1.008078112506587	-5.567411132657111	0	0	43.22931743641573	-11.0625562076151	0	57.75862126614159	1.008078112506587	-5.567411132657111	0	0	-0.04799573485374116	-0.02910791431523568	0.05110763492409676	-0.2224878142199573	-0.1364187619609128	0.06711072294696396	0.5446937879615706	5.887897327265999	0	0	0	-9.556844153702192	0	84.17392751502132	5.887897327265999	0	0
0.04	0.02725143554109049	0.02990237421767028	-89.9614546401631	0	0.9399999998679526	0	43.30397674647553	-10.92429610278211	0	57.83341649751818	1.009383535558899	-5.475810129303012	0	0	43.30397674647553	-10.92429610278211	0	57.83341649751818	1.009383535558899	-5.475810129303012	0	0	-0.03364879289367278	-0.02682868225540798	0.06685596139375373	-0.1477028307067913	-0.1431007982978596	0.08087793835040932	0.5063237094074328	5.711960236571612	0	0	0	-9.677421484249525	0	84.3479986600819	5.711960236571612	0	0
0.05	0.02597091765745766	0.06814532708148692	-89.96268046657678	0	0.9399999998679526	0	43.34165099402249	-10.86022688114736	0	57.87146854151949	1.010047669013836	-5.434686394598724	0	0	43.34165099402249	-10.86022688114736	0	57.87146854151949	1.010047669013836	-5.434686394598724	0	0	0.007270832279323004	-0.02570367597539485	0.06846210304268784	-0.1061406242593367	-0.1474216311394317	0.05236991798548791	0.4657698788932227	5.622171030075397	0	0	0	-9.739407144645636	0	84.43683615538566	5.622171030075397	0	0
0.06	0.0268270870734083	0.066015320079456	-89.89270288085305	0	0.9399999998679526	0	43.38368214932374	-10.79404117039418	0	57.91423789649821	1.010794135077169	-5.393394714628754	0	0	43.38368214932374	-10.79404117039418	0	57.91423789649821	1.010794135077169	-5.393394714628754	0	0	0.003185133374701677	-0.02850744574500455	-0.06380616501812367	-0.1045681167576607	-0.1206377692600008	0.1422506526740566	0.4572933333665423	5.520962043363212	0	0	0	-9.809741107878398	0	84.53697296231688	5.520962043363212	0	0
0.07000000000000001	0.01910028093445604	0.06009977174907701	-89.87768523409765	0	0.9399999998679526	0	43.3838748362572	-10.79371078242834	0	57.91443336536844	1.010797546652539	-5.393181297720904	0	0	43.3838748362572	-10.79371078242834	0	57.91443336536844	1.010797546652539	-5.393181297720904	0	0	0.008450354301527947	-0.01420432251873045	-0.02526777006304632	-0.1482922749337951	-0.03785898496638018	0.07061248640900421	0.4185881005928264	5.520502501958902	0	0	0	-9.81005865360159	0	84.53742763280091	5.520502501958902	0	0
0.08	0.02759046960315815	0.06633805406381332	-89.89196478963542	0	0.9399999998679526	0	43.4139200204543	-10.74918992773511	0	57.94519584875805	1.011334453273778	-5.365979057450559	0	0	43.4139200204543	-10.74918992773511	0	57.94519584875805	1.011334453273778	-5.365979057450559	0	0	0.002644661878025791	-0.02726694802343536	-0.002505729332485288	-0.1060318558891307	-0.03734239080099347	0.0457582124465877	0.3925789892498876	5.447531234469099	0	0	0	-9.861051556365313	0	84.60962617729258	5.447531234469099	0	0
0.09	0.0218763390971757	0.08808806608113652	-89.8937479698903	0	0.9399999998679526	0	43.4417484616316	-10.70949035151039	0	57.97380094454773	1.011833706378156	-5.342053006541931	0	0	43.4417484616316	-10.70949035151039	0	57.97380094454773	1.011833706378156	-5.342053006541931	0	0	0.05238752132791249	-0.01053904361416086	-0.001536882439323612	-0.3773435173441579	-0.07732854465758146	0.04291207197007493	0.9134137936703836	5.379588017657241	0	0	0	-9.908692423801329	0	84.67685008868825	5.379588017657241	0	0
0.1	0.03154769216892601	0.06925673554042693	-89.89359460804603	0	0.9399999998679526	0	43.4809146491307	-10.65519248121757	0	58.01415795148807	1.012538069025516	-5.309698884150986	0	0	43.4809146491307	-10.65519248121757	0	58.01415795148807	1.012538069025516	-5.309698884150986	0	0	0.006146039530066636	-0.02844999937501038	-0.003161383923022813	-0.1491658884231757	-0.01097251030344316	0.07917451105815604	0.3924370412022256	5.283616341463097	0	0	0	-9.976140422529202	0	84.77180589182612	5.283616341463097	0	0
0.11	0.02776152887874709	0.06462284445496264	-89.88655037859641	0	0.9399999998679526	0	43.48108522765418	-10.65493491866325	0	58.01433279320437	1.012541120589135	-5.309540044702667	0	0	43.48108522765418	-10.65493491866325	0	58.01433279320437	1.012541120589135	-5.309540044702667	0	0	-0.0117238330174306	-0.02498748608958423	-0.01039101293732627	-0.1748926961642762	-0.007626787178015232	0.02795920421240602	0.3800439772632003	5.283202602435398	0	0	0	-9.976429385399182	0	84.77221524909959	5.283202602435398	0	0
0.12	0.02749431574566889	0.06590648449255208	-89.88825162479297	0	0.9399999998679526	0	43.48125953009032	-10.65467159084175	0	58.01451133063483	1.012544236655134	-5.309377645567851	0	0	43.48125953009032	-10.65467159084175	0	58.01451133063483	1.012544236655134	-5.309377645567851	0	0	-0.03493393349271585	-0.02140589715754562	-0.009959158635216571	-0.1741750088450786	0.004129967325997691	0.0001524081415532096	0.365149863957711	5.282779928467097	0	5.38806921148701e-36	0	-9.976724525789862	0	84.77263344665016	5.282779928467097	0	5.38806921148701e-36
0.13	0.02366666373367917	0.05165374483965112	-89.88557261622513	0	0.9399999998679526	0	43.48142393813578	-10.65442427836298	0	58.01468028782272	1.012547185514358	-5.309225258504685	0	0	43.48142393813578	-10.65442427836298	0	58.01468028782272	1.012547185514358	-5.309225258504685	0	0	-0.007356775308759475	-0.01632529848277751	-0.01614390671428956	-0.2593386384333379	0.04666535315375235	-0.0692297757454097	0.3849966412199753	5.282380740768456	0	-6.5420598704652e-54	0	-9.977003574580573	0	84.77302840686716	5.282380740768456	0	-6.5420598704652e-54
0.14	0.02438436460103943	0.04559196522216183	-89.89089693089373	0	0.9399999998679526	0	43.48159351312449	-10.65416922014759	0	58.01485449328362	1.012550225973226	-5.309068123214922	0	0	43.48159351312449	-10.65416922014759	0	58.01485449328362	1.012550225973226	-5.309068123214922	0	0	0.04546158869162478	-0.01574739181271263	-0.004421044817106676	-0.3377487674223807	0.07912462359606162	-0.05379767570638599	0.3652544217267953	5.281969046726159	0	0	0	-9.977291334552598	0	84.77343574096705	5.281969046726159	0	0
0.15	0.02710725661897712	0.07625830362023532	-89.85969972162404	0	0.9399999998679526	0	43.48175135952644	-10.653931922836	0	58.0150167424346	1.012553057755119	-5.308921937775589	0	0	43.48175135952644	-10.653931922836	0	58.0150167424346	1.012553057755119	-5.308921937775589	0	0	0.07556637668896425	-0.02060950690787369	-0.03477781623132779	-0.4174144564171066	0.08941477577309	-0.1355093233838451	0.3726889017609154	5.281585744059083	0	0	0	-9.977559305654117	0	84.77381498439995	5.281585744059083	0	0
0.16	0.03082406842884455	0.1244176768941547	-89.82608329284938	0	0.9399999998679526	0	43.51502649817309	-10.60940788694814	0	58.04942855926571	1.013153657260415	-5.282739722721588	0	0	43.51502649817309	-10.60940788694814	0	58.04942855926571	1.013153657260415	-5.282739722721588	0	0	0.2547989861174337	-0.03480984118512458	-0.004985493086061718	-0.4895020630774576	0.1329198384090323	-0.2013909017175796	0.3377225337709348	5.199658082177359	0	0	0	-10.03531441044281	0	84.85487559393373	5.199658082177359	0	0
0.17	0.03287483953777291	0.10395045661905	-89.88337092977102	0	0.9399999998679526	0	43.51518577234138	-10.60918039724803	0	58.04959330715646	1.013156532653544	-5.28260218537915	0	0	43.51518577234138	-10.60918039724803	0	58.04959330715646	1.013156532653544	-5.28260218537915	0	0	0.3003162859191461	-0.02389334969192432	0.03861275710797882	-0.5715760358348219	0.1557819210932224	-0.1674421998491428	0.3565664768024566	5.199268552224089	0	0	0	-10.03558800851315	0	84.85526100002144	5.199268552224089	0	0
0.18	0.009835245320478643	0.1286326336312992	-89.81985955621623	0	0.9399999998679526	0	43.51542615104955	-10.60883603104543	0	58.04984136506546	1.013160862080792	-5.282393861848644	0	0	43.51542615104955	-10.60883603104543	0	58.04984136506546	1.013160862080792	-5.282393861848644	0	0	0.3479552250809063	-0.006049407369451136	0.01778200425218268	-0.5933175739949871	0.1840831096142308	-0.2795244494105534	0.3460076920440049	5.198681187376444	0	0	0	-10.03600024905464	0	84.85584214637967	5.198681187376444	0	0
0.19	0.01119427417712046	0.1660001464626249	-89.88274777207923	0	0.9399999998679526	0	43.515595124684	-10.60859503393692	0	58.0500163075799	1.01316391540367	-5.282248209924976	0	0	43.515595124684	-10.60859503393692	0	58.0500163075799	1.01316391540367	-5.282248209924976	0	0	0.4217513117852805	-0.002290270404393791	0.08707178009147279	-0.6352821509482532	0.2191632915320574	-0.2985892230663812	0.3489078818968437	5.198267772996205	0	0	0	-10.0362907224853	0	84.85625118410196	5.198267772996205	0	0
0.2	-0.01159611917886511	0.1891626266895547	-89.83562489771178	0	0.9399999998679526	0	43.51579893902204	-10.60830252352616	0	58.05022622820711	1.013167579209783	-5.282071222622407	0	0	43.51579893902204	-10.60830252352616	0	58.05022622820711	1.013167579209783	-5.282071222622407	0	0	0.4499756087153788	0.01393499281206224	0.01176446335979553	-0.6086596483589185	0.2828555527930823	-0.3616188301055759	0.3246930349176537	5.19777008828845	0	0	0	-10.03663980917617	0	84.85674359965029	5.19777008828845	0	0
